<svg xmlns="http://www.w3.org/2000/svg" viewBox="0 0 100 125" x="0px" y="0px"><title>e_0034_agumentedReality_set_v01_exp</title><g><path d="M50.918,39H53a1,1,0,0,0,0-2H50.918a6.99953,6.99953,0,0,0-6.9292,7.99023L44.84717,51H43a3.00328,3.00328,0,0,0-3,3V70a1,1,0,0,0,1,1h1v2a1,1,0,0,0,1,1h3a1,1,0,0,0,1-1V71h1a1,1,0,0,0,1-1h4a1,1,0,0,0,0-2H49V58h4a1,1,0,0,0,0-2H49V54a2.9896,2.9896,0,0,0-.05615-.55579c-.01086-.05768-.02826-.11218-.04236-.16864a2.95734,2.95734,0,0,0-.11084-.35638c-.02356-.06061-.04938-.11914-.07672-.1778a2.98787,2.98787,0,0,0-.1701-.313c-.03223-.05194-.06238-.10431-.09766-.15405a3.01345,3.01345,0,0,0-.26581-.322c-.0257-.02734-.04736-.05792-.074-.08423a3.02406,3.02406,0,0,0-.40564-.33484c-.04053-.02808-.0849-.0498-.12689-.07587a2.98186,2.98186,0,0,0-.33844-.184c-.05872-.02673-.1189-.04877-.17957-.07178-.05707-.02161-.1109-.04962-.16956-.06781l-.918-6.42676A5,5,0,0,1,50.918,39ZM45,72H44V71h1Zm1-3H42V54a1.0013,1.0013,0,0,1,1-1h3a1.0013,1.0013,0,0,1,1,1V69Zm-6,4a1,1,0,0,1-1,1H22.83447a1,1,0,0,1,0-2H39A1,1,0,0,1,40,73Zm56.16553,0a1,1,0,0,1-1,1h-2a1,1,0,1,1,0-2h2A1,1,0,0,1,96.16553,73Zm-26.77,0a1,1,0,0,1-1,1H64.979a1,1,0,0,1,0-2h3.4165A1,1,0,0,1,69.39551,73Zm18.791,0a1,1,0,0,1-1,1H83.77a1,1,0,0,1,0-2h3.4165A1,1,0,0,1,88.18652,73ZM77.791,72H76V71h1a1,1,0,0,0,1-1V54a3.00328,3.00328,0,0,0-3-3H73.15283l.8584-6.00977A6.99953,6.99953,0,0,0,67.082,37H58V13.7002A4.70539,4.70539,0,0,0,53.2998,9H16.7002A4.763,4.763,0,0,0,12,13.7002V86.2998A4.70539,4.70539,0,0,0,16.7002,91H53.2998A4.65608,4.65608,0,0,0,58,86.3999V74h1a1,1,0,0,0,0-2H58V70H69a1,1,0,0,0,1,1h1v2a1,1,0,0,0,1,1h5.791a1,1,0,0,0,0-2ZM76,54V69H71V54a1.0013,1.0013,0,0,1,1-1h3A1.0013,1.0013,0,0,1,76,54ZM67.082,39a5,5,0,0,1,4.94971,5.707l-.918,6.42676c-.05872.01819-.11255.04626-.16968.06787-.06055.02295-.12061.045-.1792.07166a2.98254,2.98254,0,0,0-.33881.18408c-.04193.02606-.08624.04773-.12677.07581a3.02406,3.02406,0,0,0-.40564.33484c-.02667.02631-.04834.05688-.074.08423a3.01345,3.01345,0,0,0-.26581.322c-.03522.04968-.06543.10205-.0976.15393a2.98057,2.98057,0,0,0-.17035.3136c-.02716.05835-.05292.11658-.07635.17694a2.96744,2.96744,0,0,0-.111.357c-.0141.05634-.03156.11084-.04236.16846A2.9896,2.9896,0,0,0,69,54v2H58V39ZM45.15759,11l-1.04626,1.04736A3.446,3.446,0,0,1,41.96973,13H28.66992a2.70919,2.70919,0,0,1-2.10547-.91943L25.44525,11ZM56,86.3999A2.68711,2.68711,0,0,1,53.2998,89H16.7002A2.70341,2.70341,0,0,1,14,86.2998V13.7002A2.77079,2.77079,0,0,1,16.7002,11h5.866l2.551,2.4585A4.62826,4.62826,0,0,0,28.66992,15h13.2998a5.418,5.418,0,0,0,3.50732-1.49316L47.98389,11H53.2998A2.70341,2.70341,0,0,1,56,13.7002ZM58,68V58H69V68Zm15,3h1v1H73ZM37,47V24a1,1,0,0,0-1-1H21a1,1,0,0,0-1,1V47a1,1,0,0,0,1,1H36A1,1,0,0,0,37,47ZM35,25v6.96094l-1.668-1.668a.99964.99964,0,0,0-1.41406,0l-1.69922,1.69922-2.85547-2.85547a.99964.99964,0,0,0-1.41406,0L22,33.08594V25ZM22,46V35.91406l4.65625-4.65625,2.85547,2.85547a.99964.99964,0,0,0,1.41406,0L32.625,32.41406l2.36328,2.36328L35,34.78516V46Z"/></g></svg>