<svg xmlns="http://www.w3.org/2000/svg" viewBox="0 0 100 125" x="0px" y="0px"><g><g><g><path d="M46.39,51.48a16.31,16.31,0,0,1-14.72-9.2A16,16,0,0,1,31,29.82a16.55,16.55,0,0,1,8.31-9.25,16.38,16.38,0,0,1,12.41-.73A16.33,16.33,0,0,1,53.38,50,17.45,17.45,0,0,1,46.39,51.48Zm0-30a13.46,13.46,0,0,0-6,1.36h0a13.68,13.68,0,0,0-7,7.78,13.3,13.3,0,0,0,.58,10.52A13.79,13.79,0,0,0,58.79,29.19a14.13,14.13,0,0,0-7.88-7.09A16.82,16.82,0,0,0,46.39,21.47Zm-6.52.21Z"/><path d="M55.27,55.06a1.22,1.22,0,0,1-1.16-.74l-2.41-5a1.25,1.25,0,0,1,.57-1.68,1.19,1.19,0,0,1,1.69.57l2.41,5a1.3,1.3,0,0,1-.57,1.68A1,1,0,0,1,55.27,55.06Z"/><path d="M59.27,72.83a1.31,1.31,0,0,1-1.16-.69L52.22,59.63a5.25,5.25,0,0,1-.21-4,5,5,0,0,1,2.68-3,5.39,5.39,0,0,1,7.05,2.47l5.94,12.51a1.24,1.24,0,0,1,0,.95,2.13,2.13,0,0,1-.63.73l-7.31,3.47C59.63,72.77,59.48,72.83,59.27,72.83ZM57,54.69A2.25,2.25,0,0,0,55.8,55a2.38,2.38,0,0,0-1.42,1.52,2.9,2.9,0,0,0,.1,2.1l5.36,11.31,5-2.42L59.42,56.21A2.55,2.55,0,0,0,57,54.69Z"/><path d="M75.56,94.75H23.25a5,5,0,0,1-5-5V10.06a5.1,5.1,0,0,1,5-5H75.61a5,5,0,0,1,5,5V89.7A5.19,5.19,0,0,1,75.56,94.75ZM23.25,7.59a2.54,2.54,0,0,0-2.47,2.47V89.7a2.54,2.54,0,0,0,2.47,2.47H75.61a2.47,2.47,0,0,0,2.48-2.47V10.06a2.47,2.47,0,0,0-2.48-2.47Z"/><path d="M79.24,83.18H19.47a1.3,1.3,0,0,1-1.31-1.31,1.34,1.34,0,0,1,1.31-1.32H79.35a1.34,1.34,0,0,1,1.31,1.32A1.39,1.39,0,0,1,79.24,83.18Z"/><path d="M53.59,89H45.12a1.3,1.3,0,0,1-1.31-1.32,1.33,1.33,0,0,1,1.31-1.31h8.47A1.33,1.33,0,0,1,54.9,87.7,1.3,1.3,0,0,1,53.59,89Z"/><path d="M57.16,12.42H41.65a1.29,1.29,0,0,1-.52-.15c-1.89-.9-3.37-4.37-3.79-5.47a1.26,1.26,0,0,1,.74-1.68,1.31,1.31,0,0,1,1.68.73,11.39,11.39,0,0,0,2.32,3.94H57a13.07,13.07,0,0,0,2.26-3.94,1.33,1.33,0,0,1,1.69-.73,1.39,1.39,0,0,1,.73,1.68c-.47,1.1-1.89,4.57-3.73,5.47A6.91,6.91,0,0,1,57.16,12.42Z"/></g></g></g></svg>