<svg xmlns="http://www.w3.org/2000/svg" xmlns:xlink="http://www.w3.org/1999/xlink" version="1.1" x="0px" y="0px" viewBox="0 0 136 170" style="enable-background:new 0 0 136 136;" xml:space="preserve"><g><path d="M51.91,89.22c0.17,0,0.2-0.07,1.01-0.52c0.16-0.09,1.45-2.81,1.48-2.91l5.59-3.13c1.76,1.49,1.14,1.44,2.51,0.67   c0.33-0.19,0.13-0.48,0.18-2.2c1.49-0.97,0.6-2.24,0.89-8.93c0-4.15-8.42-7.52-8.94-7.37c-3.92,1.1-8.29,3.23-13.43,6.18   c-0.12,0.07-0.19,0.2-0.19,0.34c0.01,0.1,0.28,9.83,0.23,9.24c-2.31-2.4-7.08-4.27-7.4-4.18c-5.1,1.42-13.64,5.78-13.62,6.42   c0.01,0.1,0.06,1.04,0.05,0.94c0.01,0.1-0.04,9.29-0.04,9.18c0.07,0.56-0.22,1.74,0.39,2.08c8.07,5.53,7.34,5.16,7.68,5.16   c0.42,0,0.58-0.22,2.44-1.22c0.04,0.82-0.19,2.22,0.57,1.78c1.45-0.88,0.47,0.13,2.28-3.33c0.01-0.02,0.01-0.04,0.02-0.06   l5.59-3.13c1.26,1.07,1.25,1.2,1.5,1.2c0.06,0,0.13-0.02,0.19-0.05c0.58-0.38,1-0.44,1-0.8l-0.01-1.87   c0.94-0.61,1.03-1.74,0.87-2.99l0.02-5.38l5.85,4.09c0.64,0.53,1.12-0.12,2.91-1.03C51.58,88.59,51.36,89.22,51.91,89.22z    M52.44,88.11l-0.16,0.09l0-1.23l0.99-0.55L52.44,88.11z M61.53,83.02l-0.85-0.75l1.25-0.7l0,1.22L61.53,83.02z M59.62,79.23   l-6.25-3.66l0.12-7.57l6.15,3.55C59.64,71.65,59.62,79.74,59.62,79.23z M52.62,75.56l-0.86,0.49c-0.44-0.97-1.23-1.76-2.24-2.16   l-4.79-2.2c2.84-1.55,5.53-2.81,8.01-3.78L52.62,75.56z M52.01,76.77l0.98-0.56l6.23,3.65l-7.1,3.77   C52.1,77.64,52.25,77.72,52.01,76.77z M48.21,85.26l-6.16-4l-0.18-8.31l6.36,4.16L48.21,85.26z M48.23,86.18l0.04,1.1l-5.55-3.88   c-0.04-0.32-0.11-0.64-0.23-0.94L48.23,86.18z M32.7,79.57l6.15,3.55c0,0.1-0.02,8.2-0.02,7.68l-6.25-3.66L32.7,79.57z    M31.84,87.11l-0.89,0.42c-1.01-2.11-2.67-2.06-7-4.27c2.85-1.55,5.53-2.81,8.01-3.78L31.84,87.11z M31.2,88.24l0.99-0.46   l6.25,3.66l-7.1,3.77C31.3,89.37,31.47,89.23,31.2,88.24z M27.42,96.84l-6.45-4.14l0.11-8.27l6.36,4.26L27.42,96.84z M20.98,93.61   l6.46,4.14l0.04,1.1C20.35,93.53,21.04,95.1,20.98,93.61z M31.65,99.69l-0.16,0.09l0-1.23L32.47,98L31.65,99.69z M40.74,94.59   l-0.85-0.75l1.25-0.7l0,1.22L40.74,94.59z M41.45,92.11c-13.9,7.8-13.03,7.32-13.12,7.34c0,0-0.01-0.01-0.01-0.01l-0.05-0.03   c-0.16-0.59-0.07-9.19-0.08-10.91c0-0.38-0.03-0.15-7.18-4.97c-0.01-0.19-0.02-0.36-0.03-0.49c4.96-2.83,9.15-4.79,12.94-5.86   c0.86,0.31,8.1,3.01,8.1,6.61l-0.02,5.74l-2.42,1.31l0.01-2.19c-0.05-5.76,0.18-5.85-0.17-6.05c-0.1-0.06-7.34-4.24-6.89-3.98   c0,0,0,0,0,0c-0.86-0.3-8.79,3.92-9.6,4.37c-0.12,0.07-0.2,0.2-0.19,0.34c0.02,0.43,0.18,0.22,5.71,2.84   c1.3,0.51,2.17,1.79,2.16,3.19c0.13,6-0.35,6.84,0.35,6.84h0c0.1-0.01,0.11,0.01,0.21-0.04c3.42-1.82,7.44-3.95,10.85-5.76   C41.98,90.61,42.24,91.65,41.45,92.11z M49.12,87.87c-0.01,0-0.01-0.01-0.01-0.01l-0.05-0.03c-0.24-0.86,0.07-11.03-0.26-11.24   l-7-4.55c-0.01-0.19-0.02-0.36-0.03-0.49c4.96-2.83,9.15-4.88,12.94-5.96c0.87,0.31,8.1,3.01,8.1,6.61l-0.02,5.74l-2.42,1.31   l0.01-2.19c-0.05-5.76,0.18-5.85-0.17-6.05c-0.1-0.06-7.01-4.04-6.91-3.98c-0.83-0.31-8.82,3.95-9.58,4.37   c-0.27,0.15-0.25,0.54,0.03,0.67c3.84,2.16,7.67,2.35,7.65,5.71c0.13,6-0.35,6.84,0.35,6.84h0c0.1-0.01,0.11,0.01,0.21-0.04   c2.33-1.24,6.87-3.65,10.85-5.76c-0.04,0.22,0.22,1.26-0.57,1.72C51.02,86.82,49.2,87.85,49.12,87.87z"/><path d="M123.84,35.12c0-0.01-0.01-0.01-0.01-0.02c-0.01-0.13-0.06-0.22-0.17-0.29c0,0-0.01-0.01-0.01-0.01L69.23,3.25   c0,0-0.01,0-0.01,0c-0.05-0.03-0.11-0.05-0.17-0.05c0,0,0,0,0,0c-0.01,0-0.01,0-0.02,0c-0.05,0-0.1,0.02-0.14,0.04   c-0.01,0-0.02,0-0.03,0.01C68.75,3.3,6.61,39.16,12.4,36.12c0.03,10.29,0.18,59.32,0.2,64.89c0.1,0.12,0.02,0.06,0.14,0.14   c0,0,0,0,0,0C88.18,145,61.38,129.23,67.3,132.81c0.91,0,56.54-32.6,56.68-32.69C123.82,27.68,123.84,35.74,123.84,35.12z    M119.73,98.08l-52.37,30.24l-50.5-29.36c2.2-1.42,3.22-1.54,2.89-2.11c-0.33-0.57-0.94,0.25-3.26,1.46l-0.17-60.14L68.67,7.94   c0.18,53.74-0.36,51.45,0.38,51.45c0.73,0,0.2,2.33,0.38-51.47l50.51,29.35l0.18,60.16c-10.05-5.66-10.34-6.41-10.7-5.79   C109.04,92.26,109.87,92.15,119.73,98.08z M120.3,36.61L69.42,7.05V4.22l53.31,30.9L120.3,36.61z M68.67,7.08L15.95,37.52   l-2.43-1.4l55.15-31.9V7.08z M13.15,36.77l2.43,1.4l0.17,60.57l-2.45,1.43L13.15,36.77z M16.12,99.39l50.86,29.57l-0.05,2.82   l-53.27-30.96L16.12,99.39z M67.73,128.97l52.75-30.45l2.43,1.42l-55.23,31.85L67.73,128.97z M120.85,97.86l-0.18-60.6l2.41-1.47   l0.19,63.49L120.85,97.86z"/><path d="M75.91,104.09c0.04,0,0.08-0.01,0.12-0.02c0.92-0.31,1.79-0.68,2.58-1.09c0.44-0.23,0.09-0.89-0.34-0.67   c-0.76,0.39-1.6,0.75-2.48,1.04c-0.2,0.07-0.3,0.28-0.24,0.48C75.61,103.99,75.75,104.09,75.91,104.09z"/><path d="M52.12,95.18c0.73-7.64,17.16-11.29,26.77-5.74c3.49,2.02,5.12,4.88,4.35,7.66c-0.06,0.2,0.06,0.41,0.26,0.46   c0.2,0.05,0.41-0.06,0.46-0.26c0.87-3.13-0.89-6.31-4.7-8.51c-9.89-5.71-27.1-2.05-27.9,6.32c-0.31,3.3,2.54,6.09,3.04,6.09   c0.35,0,0.51-0.43,0.25-0.66C52.81,98.94,51.94,97.08,52.12,95.18z"/><path d="M74.89,99.58c-1.13,0.66-2.53,1.15-4.06,1.43c-0.2,0.04-0.34,0.23-0.3,0.44c0.03,0.18,0.19,0.31,0.37,0.31   c0.02,0,0.04,0,0.07-0.01c1.63-0.3,3.08-0.81,4.3-1.52c4.25-2.47,4.25-6.61-0.05-9.09c-6.27-3.62-17.5-1.47-18.1,4.11   c-0.15,1.37,0.45,2.75,1.69,3.89c0.37,0.34,0.87-0.22,0.51-0.55c-6.07-5.58,7.2-11.61,15.54-6.79   C78.63,93.98,78.64,97.4,74.89,99.58z"/><path d="M20.69,48.77c0.23,31.86-0.3,31.12,0.43,31.12c0,0,0,0,0,0c0.73,0,0.2,0.76,0.32-30.72c0.72,0.26,1.52-0.28,2-0.89   c0.23,31.37-0.3,30.61,0.43,30.61c0,0,0,0,0,0c0.73,0,0.2,0.81,0.32-31.31c0.73,0.26,1.52-0.28,2-0.9   c0.23,31.92-0.3,31.2,0.43,31.2c0,0,0,0,0,0c0.73,0,0.2,0.84,0.31-31.89c0.72,0.27,1.52-0.29,2-0.9   c0.11,15.79-0.15,34.25,0.44,31.78c0.73,0,0.2,0.85,0.31-32.47c0.73,0.26,1.51-0.28,2-0.89c0.12,16.05-0.16,34.89,0.44,32.36   c0.73,0,0.2,0.92,0.31-33.05c0.72,0.26,1.52-0.28,2-0.89c0.12,16.7-0.15,35.71,0.45,32.94c0.74,0,0.2,0.83,0.3-33.64   c0.72,0.27,1.52-0.28,2-0.89c0.12,16.1-0.14,36.24,0.45,33.52c0.64,0,0.27-0.97,0.37-2.45l9.16-5.29c0-0.32,0-0.64,0.01-0.95   l-3.96,2.29l-0.08-27.11l3.79-2.19c0.17,20.9-0.24,28.49,0.43,26.9c0.73,0,0.2,0.75,0.31-31.11c0.73,0.24,1.54-0.55,1.99-1.16   c-0.03,34.57-0.07,32.12,0.45,32.21c0.59,0,0.28,1.46,0.3-28.26c0-0.01,0-0.02,0-0.03c0-1.43,0-2.89,0-4.38   c0.75,0.27,1.55-0.61,2.01-1.26c0.11,15.65-0.16,35.58,0.44,32.92c0.21,0,0.37-0.17,0.37-0.38l-0.07-32.83   c0.72,0.26,1.52-0.29,2-0.9c0.24,35.1-0.29,34.1,0.44,34.1h0c0.21,0,0.37-0.17,0.37-0.38l-0.07-34.42c0.72,0.26,1.51-0.28,2-0.89   c0.09,13.39-0.18,39.08,0.45,35.69c0.73,0,0.2,1.18,0.3-36.38c0.73,0.26,1.52-0.28,2-0.89c0.25,38.49-0.29,37.28,0.45,37.28h0   c0.21,0,0.37-0.17,0.37-0.38L61.41,26c0.72,0.26,1.52-0.28,2-0.89c0.25,40.07-0.28,38.86,0.45,38.86h0c0.21,0,0.37-0.17,0.37-0.38   l-0.08-39.96c0.79-0.51,1.18-0.54,1.18-0.9c-0.06-1.2,0.12-1.56-0.2-1.74c-1.09-0.57-1.28-0.9-1.6-0.71   c-47.85,27.76-45.29,25.99-45.29,26.4c0.05,1.21-0.13,1.55,0.19,1.73l1.23,0.72c0.06,0.03,0.12,0.05,0.19,0.05   C20.03,49.19,20.06,49.11,20.69,48.77z M21.53,48.28l1.6-0.92C22.78,48.01,21.86,48.89,21.53,48.28z M25,46.75   c-0.29,0.16-0.57,0.23-0.72-0.06l1.6-0.93C25.66,46.18,25.35,46.55,25,46.75z M27.03,45.1l1.61-0.93   C28.3,44.81,27.36,45.73,27.03,45.1z M29.78,43.51l1.61-0.93C31.04,43.24,30.1,44.14,29.78,43.51z M32.52,41.92l1.61-0.93   C33.78,41.66,32.84,42.55,32.52,41.92z M35.27,40.33l1.61-0.93C36.53,40.08,35.59,40.97,35.27,40.33z M38,70.46l-0.06-27.12   l4.48-2.59l0.08,27.11L38,70.46z M37.94,42.4l-0.01-3.6l8.98-5.19l0.01,3.61L37.94,42.4z M47.79,33.1l1.24-0.72   C48.73,32.77,48.02,33.54,47.79,33.1z M50.56,31.49l1.05-0.6C51.35,31.21,50.78,31.84,50.56,31.49z M53.28,29.92l1.54-0.89   C54.5,29.59,53.63,30.45,53.28,29.92z M56.03,28.33l1.54-0.89C57.25,28,56.38,28.86,56.03,28.33z M58.77,26.74l1.55-0.9   C60,26.43,59.13,27.27,58.77,26.74z M61.52,25.15l1.55-0.9C62.76,24.82,61.88,25.69,61.52,25.15z M19,47.88V46.9l44.72-25.86   l0.85,0.49l0.01,0.99l-0.58,0.33c-0.22-0.18-0.6-0.09-0.61,0.36l-2.13,1.23c-0.22-0.17-0.6-0.1-0.62,0.36l-2.13,1.23   c-0.22-0.18-0.6-0.09-0.62,0.36l-2.13,1.23c-0.21-0.18-0.6-0.11-0.62,0.36l-2.12,1.23c-0.26-0.19-0.56-0.03-0.6,0.21   c-0.01,0.05-0.03,0.11-0.05,0.17l-2.09,1.21c-0.39-0.19-0.56-0.05-0.64,0.37l-2.12,1.22c-0.26-0.2-0.61,0-0.61,0.31v0.04l-9.17,5.3   c-0.27-0.16-0.56,0.05-0.56,0.32v0c0,0,0,0,0,0l-2.19,1.26c-0.27-0.16-0.56,0.05-0.56,0.32v0c0,0,0,0,0,0c0,0,0,0,0,0l-2.19,1.26   c-0.1-0.06-0.09-0.04-0.19-0.06c-0.21,0-0.37,0.17-0.37,0.38v0c0,0,0,0,0,0v0c0,0,0,0,0,0.01l-2.18,1.26   c-0.27-0.16-0.56,0.04-0.56,0.32c0,0,0,0.01,0,0.01l-2.18,1.26c-0.27-0.17-0.57,0.04-0.57,0.31v0c0,0,0,0,0,0v0c0,0,0,0.01,0,0.01   l-2.18,1.26c-0.1-0.06-0.1-0.04-0.2-0.06c-0.21,0-0.37,0.17-0.37,0.38v0.01c0,0,0,0.01,0,0.01l-2.17,1.26   c-0.27-0.17-0.57,0.03-0.57,0.31v0v0.02l-0.83,0.48L19,47.88z"/><path d="M102.24,85.12c0.02-0.25,0.29-10.08,0.24-9.3c-0.04-0.27-0.06-0.2-0.18-0.33c-0.2-0.12-1.87-1.09-1.77-1.03   c-7.63-5.79-24.87-15.09-26.78-14.42c-8.82,2.99-8.82,7.48-8.71,7.36c0.01,2.06,0.02,6.21,0.02,5.95c0,0.02-0.01,0.03-0.01,0.05   c0.09,0.6-0.38,2.12,0.89,2.95c0.05,1.72-0.14,2.01,0.18,2.2l0.82,0.47c0.4,0.23,0.65-0.32,1.69-1.15l20.5,11.49   c1.46,2.94,1.34,2.87,1.52,2.97c0.81,0.45,0.83,0.52,1,0.52c0.61,0,0.29-0.91,0.38-1.86c3.33,1.8,1.09,2.34,9.8-3.76   C102.49,86.84,102.15,85.84,102.24,85.12z M91.27,91.82l-0.16-0.09L90.27,90l1,0.58L91.27,91.82z M68.95,66.75l3.4-1.96l-0.38,3.01   l-3,2.35L68.95,66.75z M75.5,62.98c6.86,2.63,19.51,10.07,22.88,12.53c-4.2,2.06-5.23,2.03-6.24,3.5L72.72,67.8l0.44-3.48   L75.5,62.98z M101.68,76.52l-0.17,8.32l-6.16,3.58l-0.02-7.69C95.43,80.67,102.12,76.25,101.68,76.52z M94.6,88.44l-2.42-1.31   c0.04-5.95-0.15-5.88,0.16-6.13c0.42-0.34,1.49-0.29,2.24-0.17L94.6,88.44z M68.21,66.99l0.02,7.47l-2.42-1.31   c0.06-5.77-0.2-5.91,0.22-6.23c0.34-0.26,1.1-0.31,2.03-0.12C68.18,66.82,68.17,66.89,68.21,66.99z M68.98,74.86l-0.01-3.77   l3.38-2.65l19.43,11.22c-0.61,1.38-0.26,2-0.35,7.1L68.98,74.86z M73.88,60.79c11.19,3.19,25.66,13.96,27.49,15.04   c-0.1,0.06-6.79,4.48-6.5,4.3c-0.44-0.08-1.62-0.26-2.48,0.03c0.8-2.1,2.15-2.07,7.09-4.58c0.45-0.21,0.14-0.89-0.31-0.68   l-0.44,0.2c-5.15-3.86-24.68-14.84-25.21-13.23c-0.16,0.47,0.44,0.54,1.07,0.77c-0.11,0.07-6.53,3.77-6.12,3.53   c-0.35-0.2-1.58-0.35-2.34-0.13C67.56,63.16,73.03,61.09,73.88,60.79z M67.92,77.48l-0.85,0.75L66.68,78l0-1.22   C66.78,76.83,68.02,77.53,67.92,77.48z M89.58,88.74C62.42,73.2,66.23,76.59,65.79,74.02c14.79,7.84,7.5,3.98,28.79,15.27   c-0.07,1.88-0.04,1.62-0.11,2.15C89.73,88.82,89.48,88.68,89.58,88.74z M95.28,90.89l0.06-1.59l6.16-3.55v0.65   C101.49,86.65,101.96,86.19,95.28,90.89z"/><path d="M110.11,89.09l-1.72-1c-0.42-0.25-0.81,0.4-0.38,0.65l1.16,0.67l-2.5,1.45c-0.16-0.09-3.86-2.23-3.63-2.1   c0.43-0.32,1.3-0.52,1.01-1.02c-0.1-0.18-0.33-0.24-0.51-0.14c-1.26,0.8-1.62,0.79-1.62,1.16c0,0.37,0.35,0.36,1.69,1.19   c-0.54,5.2-0.84,5.35-0.44,5.57c0.27,0.12,0.47,0.37,0.74,0.21c1.64-1.05,0.49,0.41,1.7-4.62l0.78,0.45   c1.18,7.68,0.64,6.02,1.45,6.67c0.11,0.07,0.26,0.07,0.38,0c1.44-1.14,1.08,1.1,0.31-7.6l1.56-0.91   C110.36,89.59,110.36,89.23,110.11,89.09z M104.2,94.72l-0.43,0.25l0.56-4.59l0.61,0.35L104.2,94.72z M108.46,97.24l-0.41,0.24   l-0.9-6.03l0.7-0.4L108.46,97.24z"/><path d="M105.3,88.29c0.04,0.45-0.3,1.73,1.02,1.73c1.36,0,0.93-1.46,1.01-1.77c0.85-0.4,1.53-1.29,1.53-2.65   c0-1.67-1.23-3.39-1.18-3.29c-0.41-0.54-2.44-0.57-2.83,0.08C103.45,84.34,103.1,87.35,105.3,88.29z M106.58,89.19   c-0.02,0.04-0.3,0.15-0.53,0.02l0.01-0.73c0.25,0.02,0.15,0.04,0.53-0.01L106.58,89.19z M105.22,83.2   c0.57,0.39,1.64,0.37,2.16,0.02C110.77,89.24,101.81,89.21,105.22,83.2z M106.72,82.68c-0.28,0.07-0.54,0.07-0.83,0   C106.15,82.65,106.47,82.65,106.72,82.68z"/><path d="M71.93,33.18c1.3,0.73,1.25,0.77,1.44,0.78c0.1,2.04,2.87,2.35,5.64,4.33c0,0,0,0,0.01,0c0.05,0.02,0.1,0.04,0.15,0.05   c0.01,0,0.02,0,0.03,0c0.07,0,0.13,0,0.9-0.45l2.44,1.41c0.06,0.03,0.12,0.05,0.19,0.05c0.07,0,0.13-0.02,0.19-0.05   c3.8-2.27,5.73-2.99,4.87-3.48c-2.62-1.5-2.47-1.45-2.61-1.48v-1.66l0.11-1.2c0.56-0.88-1.35-1.25-4.94-3.54   c-0.34-0.2-0.69-0.22-0.96-0.06c-2.14,1.25-5.8,3.37-5.58,3.24c-0.18,0.11-0.35,0.32-0.4,0.6c-0.04,0.01-0.08,0.02-0.12,0.04   c-1.15,0.73-1.52,0.74-1.52,1.1C71.74,32.99,71.81,33.11,71.93,33.18z M79.62,37.29c0.04-0.83,0.12-0.88,0.01-1.07   c0.52-0.29,1.76-1.03,4.78-2.89v1.04C82.85,35.33,80.65,36.68,79.62,37.29z M84.43,32.44c-1.56,0.96-3.78,2.32-4.81,2.93l0.05-0.58   l4.8-2.79L84.43,32.44z M78.92,34.44c-0.03,0.07-0.02,0.15,0,0.23l-0.06,0.74c-4.09-2.42-4.22-2.24-4.56-2.83   c-0.16-0.29-0.38-1.03,0.08-0.76L78.92,34.44z M74.11,33.89c0.01-0.51,0.03-0.21,4.83,2.49c-0.01,0.1-0.08,1.07-0.08,0.97   C75.84,35.38,74.11,35.16,74.11,33.89z M86.83,36.13l-4.13,2.4l-1.88-1.09c0.82-0.49,2.08-1.27,4.03-2.47   C84.98,35.08,84.58,34.82,86.83,36.13z M79.74,28.52c0.13-0.06,0.63,0.34,4.68,2.64l-4.86,2.82c-0.1-0.11,0.1,0.04-4.6-2.68   L79.74,28.52z M73.45,32.51c0.14,0.42,0.22,0.47,0.28,0.57c-0.07,0.05-0.13,0.11-0.18,0.17l-0.69-0.4L73.45,32.51z"/><path d="M82.91,53.25c0,0-0.01,0,0.02,0.01c0.11,0.05,0.24,0.05,0.35-0.01l2.07-1.2c0.13-0.08,0.2-0.22,0.18-0.37l-0.46-3.58   c0-0.03-0.02-0.05-0.03-0.08c-0.01-0.03-0.01-0.05-0.03-0.07c-0.02-0.03-0.05-0.06-0.08-0.08c-0.02-0.01-0.03-0.03-0.04-0.04   l-1.44-0.83c-0.12-0.07-0.26-0.07-0.38,0l-2.07,1.2c-0.02,0.01-0.03,0.03-0.04,0.04c-0.03,0.02-0.06,0.05-0.08,0.08   c-0.01,0.02-0.02,0.05-0.03,0.07c-0.01,0.02-0.03,0.05-0.03,0.07l-0.48,3.04C80.27,51.95,80.76,51.92,82.91,53.25z M81.48,49.1   l0.2,0.12l0.6,0.35l0.08,0.6l0.26,2.05l-1.5-0.87L81.48,49.1z M83.4,52.32l-0.36-2.78l0.34-0.2l1.02-0.59l0.36,2.78L83.4,52.32z    M83.26,47.74l0.69,0.4l-1.32,0.77l-0.65-0.38l-0.04-0.02L83.26,47.74z"/><path d="M112.33,63.3c0.11,0.06,0.22,0.09,0.33,0.09c0.09,0,0.19-0.02,0.27-0.07c0.18-0.1,0.28-0.29,0.28-0.53   c-0.16-7.77,0.44-8.61-0.48-9.14l-0.86-0.5c-0.05-0.1-1.75-3.15-1.98-3.21c-0.27-0.07-0.34,0.12-1.83,1.01l-1.56-0.9   c-0.43-0.25-0.88,0.02-0.88,0.51l-0.02,8.26C105.59,59.88,106.61,59.79,112.33,63.3z M109.67,50.83l0.91,1.57l-1.78-1.03   L109.67,50.83z M106.37,50.84c5.85,3.46,6.12,3.37,6.12,3.69l-0.02,7.98c-5.87-3.47-6.12-3.38-6.12-3.68L106.37,50.84z"/><path d="M111.12,58.2c1.29-0.73-0.17-3.63-1.61-3.26c-1.25-2.01-3.25-0.76-2.07,1.29C109.64,59.85,108.61,59.61,111.12,58.2z    M108.32,54.77c0.71,0.41,0.67,1.31,1.23,0.99c0.1-0.03,0.15-0.19,0.49,0c0.76,0.44,1.01,1.63,0.72,1.8l-1.27,0.72l-1.39-2.42   C107.76,55.28,107.66,54.39,108.32,54.77z"/><path d="M71.54,102.32c-0.33-0.19-0.46,0.12-2.19,1.04c-0.32-0.25-0.65-0.52-0.99-0.82c0.28-1.76,0.08-7.8-1.35-7.05   c-4.13,2.18-4.78,2.23-4.56,3.11c0.49,2.52,0.56,4.46,0.21,5.95c-0.13,0.69,0.38,1.14,0.72,1.45l-0.08,0.84l-0.57,0.33   c-0.34-0.26-0.7-0.54-1.07-0.87c0.27-1.76,0.08-7.8-1.35-7.05c-3.16,1.67-3.27,1.73-4.35,2.33c-0.69,0.71,0.79,3.37,0,6.73   c-0.13,0.65,0.31,1.08,0.72,1.45l-0.63,6.28c-0.01,0.15,0.06,0.29,0.19,0.36c0.74,0.41,0.77,0.49,0.95,0.49   c0.16,0,0.67-0.26,0.71-0.52l0.76-5.21l0.58,0.33c0.04,9.98-0.2,9.85,0.16,10.06c0.98,0.53,0.64,0.53,1.52,0.04   c0.35-0.21,0.12-0.14,0.21-8.99l3.69,2.15c0.04,9.25-0.2,9.16,0.16,9.37c0.57,0.31,0.63,0.4,0.8,0.4c0.06,0,0.13-0.02,0.19-0.05   l0.54-0.31c0.36-0.2,0.12-0.07,0.21-8.61l4.4-2.53c0.05,1.93-0.15,2.21,0.18,2.4l0.61,0.35c0.27,0.15,0.48-0.08,0.91-0.31   c0.12-0.07,0.19-0.19,0.19-0.32l0.01-3.21l3.69-2.12c0.06,9.44-0.41,7.71,0.79,8.52c0.26,0.15,0.45-0.06,0.9-0.31   c0.35-0.21,0.11,0.03,0.22-9.31c1.22-0.77,1.6-0.77,1.6-1.14C80.2,107.16,80.23,107.46,71.54,102.32z M63.19,98.36l3.95-2.08   c0.3,0.36,0.89,3.99,0.46,6.36c0,0.02,0,0.04,0,0.07c0.02,0.1,0,0.16,0.12,0.27c0,0,0,0,0,0c0.04,0.04,0.05,0.04,0.05,0.04   c0.3,0.27,0.59,0.51,0.88,0.74l-4.04,2.32c-0.43-0.36-1.28-1.01-1.21-1.38C64.04,101.98,63.2,98.85,63.19,98.36z M56.47,102.12   l3.96-2.08c0.3,0.35,0.89,3.98,0.46,6.36c0,0.03,0,0.05,0,0.08c0.08,0.33,0.09,0.19,0.15,0.29c0.01,0,0.01,0.01,0.01,0.01   c0.33,0.29,0.65,0.56,0.96,0.8l-4.05,2.33c-2.73-2.29-0.01-0.1-1.49-7.69C56.48,102.21,56.47,102.14,56.47,102.12z M57.16,116.09   l-0.36-0.21l0.55-5.5c0.61,0.52,0.44,0.38,0.57,0.43L57.16,116.09z M60.34,121.06l-0.16,0.09l-0.24-0.14l0.03-9.08l0.4,0.23   L60.34,121.06z M65.76,123.71l-0.23-0.13l0.03-8.39l0.39,0.23l-0.02,8.2L65.76,123.71z M72.24,114.92l-0.17,0.09l-0.23-0.13   l0.01-2.29l0.4-0.23L72.24,114.92z M77.82,117.48l-0.16,0.09l-0.24-0.14l0.02-8.06l0.41-0.23L77.82,117.48z M76.9,108.82   l-10.47,6.02l-7.72-4.49l12.64-7.26l7.72,4.49C78.97,107.63,76.79,108.88,76.9,108.82z"/><path d="M83.8,98.89c-0.42-0.71-2.58-0.61-2.83,0.05c-1.18,3.24-1.15,3.1-1.15,3.22c0,0.94,1.27,1.24,2.21,1.3l-0.02,8.07   c-2.38,0.3-2.05,2.62,0.4,2.62c2.38,0,2.84-2.32,0.35-2.61l0.02-8.08c0.97-0.06,2.49-0.52,2.17-1.43   C83.73,98.66,83.89,99.02,83.8,98.89z M83.12,99.25c-0.15,0.36-1.28,0.36-1.44,0C81.98,99.12,82.84,99.12,83.12,99.25z    M82.42,113.39c-1.3,0-1.84-0.87-0.4-1.12c0.04,0.26-0.18,0.98,0.37,0.98h0c0.54,0,0.33-0.73,0.38-0.97   C84.28,112.52,83.69,113.39,82.42,113.39z M80.58,102.2l0.8-2.2c0.55,0.38,1.49,0.38,2.04,0l0.79,2.2   C83.98,102.89,80.81,102.88,80.58,102.2z"/><path d="M102.21,50.36c-0.03-14.49,0.21-14.04-0.15-14.25c-5.14-2.9-6.77-4.27-6.77-3.26c0.03,14.49-0.21,14.04,0.15,14.25   C100.46,49.88,102.21,51.4,102.21,50.36z M96.04,33.5l5.45,3.15l-0.04,13.06l-5.45-3.15L96.04,33.5z"/><path d="M97.09,35.97c-0.12,0.07-0.19,0.19-0.19,0.32c0.05,9.11-0.2,9.02,0.16,9.23c2.9,1.6,3.02,1.91,3.36,1.72   c0.12-0.07,0.19-0.19,0.19-0.32c-0.05-9.11,0.2-9.02-0.16-9.23C97.59,36.11,97.44,35.77,97.09,35.97z M99.86,46.27l-2.23-1.29   l0.02-8.04l2.23,1.29L99.86,46.27z"/><path d="M86.15,51.79c-0.1,0.18-0.04,0.41,0.14,0.51l1.48,0.85l-3.25,1.89l-7.93-4.58l3.25-1.89l0.29,0.17   c0.17,0.1,0.41,0.04,0.51-0.14c0.1-0.18,0.04-0.41-0.14-0.51l-0.48-0.28c-0.12-0.07-0.26-0.07-0.38,0   c-6.56,3.94-5.7,1.33,4.69,7.98c0.06,0.03,0.12,0.05,0.19,0.05c0.07,0,0.13-0.02,0.19-0.05l4-2.32c0.12-0.07,0.19-0.19,0.19-0.32   s-0.07-0.26-0.19-0.32l-2.04-1.18C86.48,51.55,86.25,51.61,86.15,51.79z"/></g></svg>