<svg xmlns="http://www.w3.org/2000/svg" viewBox="0 0 128 160" x="0px" y="0px"><g><path d="M117.2,12.464c.543,1.157.229,2.707.214,3.943a.86.86,0,0,1-.528.829.985.985,0,0,1-.615.314,46.7,46.7,0,0,1-6.786.114c-1.286-.021-2.565-.121-3.858-.185l-.243-.022a2.716,2.716,0,0,1,.314.1c.065.029.122.057.186.093a.885.885,0,0,1,.7.9c0,6.551,1.536,13.016,1.443,19.6a3.692,3.692,0,0,1,.565,1.314,14.42,14.42,0,0,1,.235,3.672,1,1,0,0,1-.014.436c-.007.128-.014.264-.014.4,0,.014-.007.021-.007.028.221,1.486.257,2.958.335,4.451.065,1.207.243,2.415.3,3.622,1.45.4,2.886,1.271,3.229,2.679a4.07,4.07,0,0,1-.351,2.443,1.823,1.823,0,0,1-1.75.936,3.892,3.892,0,0,1,.379,3.729,3.372,3.372,0,0,1,2.686,3.5c-.236,1.629-2.065,2.4-3.586,2.586a1,1,0,0,1-.093.143,63.066,63.066,0,0,1,.586,8.28q.578,8.894,1.121,17.8c.55,8.959,1.408,17.974,1.6,26.954a.853.853,0,0,1-.121.486,1.04,1.04,0,0,1-1.157,1.336c-1.879-.35-3.644.757-5.537.064a1.017,1.017,0,0,1-.486-.371.8.8,0,0,1-.307-.543c-1.414-8.916-1.121-18.4-1.6-27.4q-.482-9.3-.943-18.6c-.1-2.107-.336-4.286-.379-6.436a8.477,8.477,0,0,1-3.071.564c-1.393-.1-2.751-.528-4.151-.528-.036,0-.064-.008-.093-.008C89.4,71.021,84.7,75.615,78.808,76.887c.122.442.236.892.357,1.321A77.672,77.672,0,0,1,81.88,93.825c.364,6.122-.564,12.037-.672,18.131-.064,3.579.522,7.4-1.571,10.537a1.062,1.062,0,0,1-1.193.45,159.994,159.994,0,0,1-16.767.257c-5.593-.057-11.123.221-16.7.464-1.014.05-2.022.072-3.036.1a.024.024,0,0,1-.014.007,2.427,2.427,0,0,1-.386.129l-.314.057c-.1.014-.179.022-.272.029l-.064.007h-.036l-.014.007H40.7l-.1-.007c-.264-.022-.536-.036-.8-.05-.207-.036-.407-.079-.615-.122-9.208.122-18.416-.328-27.625-.435a1.055,1.055,0,0,1-1.021-1.279,1.114,1.114,0,0,1-.05-.393c.214-4.065.678-8.044,1.228-12.073.55-4.008.222-8.137.6-12.18A123.531,123.531,0,0,1,16.2,75.322c1.921-6.844,4.193-14.288,8.887-19.8,2.507-2.937,5.457-4.8,8.336-7.273a20.472,20.472,0,0,1,5.537-3.836c.057-1.207-.014-2.365-.022-3.579a.829.829,0,0,1,.536-.815c.165-.3.465-.342.893-.342h.043c.207-2.144,1.107-4.172.922-5.951-.236-2.286-1.065-4.651-1.365-6.937-.493-3.829-.564-8.051,1.279-11.58,3.865-7.372,9.808-11.38,18.231-11.209,6.251.129,13.18,1.229,17.345,6.351,4.887,6.015,2.843,14-.057,20.346a22.167,22.167,0,0,1,.357,11.887,24.18,24.18,0,0,1-1.857,6.072c-.765,1.422-2.615,2.365-3.872,3.258a1.179,1.179,0,0,1-.129.071.744.744,0,0,1-.228.165,4.083,4.083,0,0,0-1.643,1.4c0,.007-.008.014-.015.021,1.7,1.779,3.336,3.608,4.965,5.351a.993.993,0,0,1,.279.543,1.067,1.067,0,0,1,.121.693,13.965,13.965,0,0,1,3.436,1.721.635.635,0,0,1,.129.1c5.172.635,10.251-1.836,15.352-2.094,1.45-1.907,3.743-3.129,5.508-4.729a13.807,13.807,0,0,1,2.022-1.543c.435-2.907-.122-6.151-.122-8.937a1.3,1.3,0,0,1,.057-.35.847.847,0,0,1,.179-.764c-.021-1.208-.064-2.415-.036-3.629.015-.622.3-1.336.3-1.922,0-6.558-.6-13.045-.721-19.588a1.239,1.239,0,0,1,.036-.3.916.916,0,0,1,.921-.843c.3-.008.6-.022.9-.036.079-1.122.536-1.822,1.958-1.75a75.513,75.513,0,0,0,10.844.193,17.174,17.174,0,0,0,.021-1.829,2.063,2.063,0,0,0-.035-.493,3.283,3.283,0,0,0-.65.007h-.058c-.042.357-.085.721-.142,1.079a.8.8,0,0,1-.329.564.888.888,0,0,1-.722.322c-6.8-.008-13.609-.108-20.417-.115a.885.885,0,0,1-.828-.507.978.978,0,0,1-.222-.379,10.566,10.566,0,0,1-.057-5.993,1.027,1.027,0,0,1,.257-.422,1,1,0,0,1,.736-.707,1.163,1.163,0,0,1,.293-.057c3.765-.086,7.594.4,11.373.478a75.994,75.994,0,0,1,9.365.329.75.75,0,0,1,.693.764.925.925,0,0,1,.072.286,19.747,19.747,0,0,1,.064,2.429A2.161,2.161,0,0,1,117.2,12.464Zm-4.351.95a19.459,19.459,0,0,0,.122-3.651c-3.479-.428-7.165-.143-10.659-.25-2.75-.078-5.522-.428-8.272-.421a1.271,1.271,0,0,1-.207.121,8.762,8.762,0,0,0,.007,4.086C100.175,13.314,106.512,13.4,112.848,13.414Zm-1.364,51.664c.107-.2-.071-.472-.222-.622a2.419,2.419,0,0,0-.571-.435c-.086-.043-.421-.115-.307-.165l-.129.043c.043.607.093,1.215.136,1.822A1.654,1.654,0,0,0,111.484,65.078Zm-.164,55.957c-.2-8.715-1.022-17.452-1.558-26.153q-.546-8.981-1.128-17.967c-.172-2.65-.122-6.436-.615-8.637a.449.449,0,0,1-.007-.093,6.8,6.8,0,0,0-3.372.408c-.043,2.664.286,5.407.415,8.043q.438,9.035.914,18.053c.45,8.551.257,18.545,1.486,26.582A15.759,15.759,0,0,0,111.32,121.035ZM110.5,55.827c.057-.279.15-.608-.043-.851a4.24,4.24,0,0,0-2.664-1.035l-.165-.022a1.261,1.261,0,0,1-.343.05,11.4,11.4,0,0,0-1.7.086h-.014c-2.486.693-4.058,1.979-6.022,3.608-1.358,1.128-3.294,2.171-4.287,3.636a1.04,1.04,0,0,1-.078.093.983.983,0,0,1-.936.614c-5.151.079-10.18,2.4-15.388,2.143.264,2.172-.086,4.315.172,6.508a22.284,22.284,0,0,1,.464,3.4,1.853,1.853,0,0,1-.072.407c2.629-.893,4.844-2.529,7.373-3.808a34.078,34.078,0,0,1,8.151-3.079,1.147,1.147,0,0,1,.343-.014.988.988,0,0,1,.207-.022A23.5,23.5,0,0,1,98.889,68a9.171,9.171,0,0,0,3.879-.615,1.8,1.8,0,0,1,.072-.207c.364-1.4,0-3.129-.079-4.551a.917.917,0,0,1,.722-.993,8.975,8.975,0,0,1,2.286-1.193,7.037,7.037,0,0,1,2.286-.192,1.056,1.056,0,0,1,.543.157,2.025,2.025,0,0,1,1.171,1.178c.008.015.015.036.022.05.007-.014.021-.035.028-.05a2.339,2.339,0,0,0,.079-.464,7.9,7.9,0,0,0-.029-1.164,4.03,4.03,0,0,0-.171-.972,1.611,1.611,0,0,0-.807-1.107l-.122-.072-.143-.014a1.863,1.863,0,0,0-.285-.043c-.236.015-.45.029-.658.05-.807.029-1.414.1-1.793.093s-.557-.057-.571-.143.128-.2.478-.35a8.459,8.459,0,0,1,1.786-.507,1.262,1.262,0,0,1,1.143-.229,1.466,1.466,0,0,0-.064-.7c-.136-.235-.236-.285-.714-.343a4.494,4.494,0,0,0-1.022-.007,1.209,1.209,0,0,0-.4.086,3.7,3.7,0,0,0-.371.107,5.184,5.184,0,0,1-.672.193,1.42,1.42,0,0,1-.5.05c-.264-.021-.371-.086-.379-.171s.086-.2.265-.315a4.083,4.083,0,0,0,.35-.236c.157-.092.336-.214.557-.35a3.6,3.6,0,0,1,.407-.214,1.932,1.932,0,0,1,.529-.2,4.866,4.866,0,0,1,1.329-.129c.121.015.25.022.378.029a2.765,2.765,0,0,1,.5.136,1.581,1.581,0,0,1,.5.314,2.239,2.239,0,0,1,.372.486,2.96,2.96,0,0,1,.193.621.886.886,0,0,1,.243-.028c.085.007.164,0,.243,0A1.611,1.611,0,0,0,110.5,55.827Zm-2.236,10.444v-.157c-.043-.879-.128-1.751-.179-2.622a1.077,1.077,0,0,1-.135-.307c-.065-.265-.086-.536-.165-.8a3.429,3.429,0,0,0-1.643.242,11.875,11.875,0,0,0-1.193.629,23.661,23.661,0,0,1,.158,3.186A8.874,8.874,0,0,1,108.262,66.271Zm-.821-14.431a.985.985,0,0,1,.257-.035c-.072-1.122-.243-2.236-.286-3.358a38.4,38.4,0,0,0-.264-3.936,5.357,5.357,0,0,0-4.058.085,65.583,65.583,0,0,0,.507,7.844c.486-.178.993-.343,1.529-.485a.956.956,0,0,1,.421-.029c.015-.007.022-.007.036-.014a11.4,11.4,0,0,1,1.7-.086A1.2,1.2,0,0,1,107.441,51.84ZM106.948,41.8c.007-.571.121-1.479-.315-1.936a2.561,2.561,0,0,0-2.279-.729c-.964.2-1.328.6-1.307,1.594a8.846,8.846,0,0,0,.243,1.935,10.881,10.881,0,0,1,3.665-.207C106.948,42.232,106.94,42.018,106.948,41.8ZM105.5,36.745q.312.054.6.129c-.05-3.279-.458-6.529-.822-9.78a2.831,2.831,0,0,0-1.836.05,1.136,1.136,0,0,1-.307.186c.157,3.115.307,6.222.343,9.344A6.849,6.849,0,0,1,105.5,36.745ZM103.026,25.28a4.96,4.96,0,0,1,2.029-.179c-.2-1.943-.358-3.886-.393-5.844a6.545,6.545,0,0,0-1.872-.085C102.84,21.208,102.926,23.251,103.026,25.28ZM79.394,108.062a87.046,87.046,0,0,0,.343-14.237,77.528,77.528,0,0,0-2.993-16.3c-1.072-3.543-2.122-7.608-3.858-11.051-.043-.036-.086-.071-.136-.114a10.878,10.878,0,0,0-2.036-1.143c-.478-.215-1.007-.45-1.571-.7-.293-.129-.586-.258-.922-.422-.157-.078-.321-.164-.479-.243-.143-.071-.293-.136-.435-.207a13.912,13.912,0,0,0-4.015-1.243,18.493,18.493,0,0,0-7.744.822c-1.986.585-3.279,1.05-3.451.742-.078-.142.136-.442.6-.857a11.926,11.926,0,0,1,2.208-1.464,15.879,15.879,0,0,1,3.736-1.386,13.323,13.323,0,0,1,4.987-.243,12.784,12.784,0,0,1,3.779,1.164c-2.872-2.729-5.587-5.665-9.023-7.651C55.1,51.64,51.4,50.926,47.911,49.54,45.3,48.5,42.725,47.368,40.167,46.2c-2.964.993-5.408,3.657-7.915,5.508a28.982,28.982,0,0,0-7.53,7.915c-3.686,5.944-5.808,13.087-7.379,19.867a127.5,127.5,0,0,0-3.158,21.546c-.178,3.05.1,6.15-.407,9.179a102.632,102.632,0,0,0-1.122,11.045c6.823.107,13.652.414,20.482.486-.107-.015-.45-.079-.608-.086-.2-.014-.378-.036-.621-.043a8.28,8.28,0,0,1-3.022-.507,10.039,10.039,0,0,1-1.229-.693,9.859,9.859,0,0,1-1.064-.693q-.525-.4-1.029-.772c-.328-.257-.607-.535-.9-.793a25.67,25.67,0,0,1-4.522-5.615c-.871-1.443-1.214-2.321-1.086-2.407.15-.093.765.607,1.85,1.857a35.477,35.477,0,0,0,4.873,4.865c.278.214.557.465.864.672s.607.4.922.607a8.807,8.807,0,0,0,1.05.6,8.828,8.828,0,0,0,1.043.522,6.742,6.742,0,0,0,2.321.242c.229-.007.508.008.786.029a7.62,7.62,0,0,1,.8.086,13.149,13.149,0,0,1,1.551.407c1,.321,1.936.721,2.864,1.043a13.07,13.07,0,0,0,1.358.407c.192.036.385.079.578.122l.343.021c-.1-.236-.214-.493-.293-.736-.207-.607-.336-1.143-.493-1.6l-.114-.293-.043-.086-.014-.043-.05-.085-.107-.165-.022-.028-.043-.05a1.762,1.762,0,0,0-.2-.222c-.621-.635-1.621-1.2-2.564-2.007l-.079-.064-.15-.136-.143-.143-.286-.279c-.185-.178-.378-.385-.564-.535a8.715,8.715,0,0,0-1.107-.879,7.6,7.6,0,0,0-1.286-.729l-1.472-.778a15.912,15.912,0,0,1-1.357-1.036,12.479,12.479,0,0,1-1.15-1.15,28.419,28.419,0,0,1-3.258-4.787c-.457-.764-.828-1.55-1.214-2.279a23.293,23.293,0,0,1-1.029-2.143,40.428,40.428,0,0,1-1.493-3.807,30.093,30.093,0,0,1-.879-2.937c-.385-1.628-.521-2.557-.364-2.607.371-.136,1.543,3.429,4.265,8.6.314.657.729,1.307,1.136,1.993s.807,1.415,1.278,2.136a29.381,29.381,0,0,0,3.194,4.322,9.366,9.366,0,0,0,.986.936c.335.307.728.522,1.093.8.428.207.864.429,1.307.643a9.541,9.541,0,0,1,1.486.815,10.8,10.8,0,0,1,1.45,1.107c.243.193.422.393.636.586l.307.3.15.15.029.021.057.043c.736.643,1.736,1.172,2.729,2.143a3.608,3.608,0,0,1,.371.414l.086.108.05.057.007.007.05.071.014.022.093.15c.022-.293.05-.586.072-.865.064-.843-.029-1.943-.136-1.714a4.537,4.537,0,0,1-.4-.343c-.129-.186-.279-.364-.393-.557-.057-.215-.121-.457-.15-.636a2.191,2.191,0,0,1-.029-.457,7.923,7.923,0,0,1,.093-1.443V111.4l.015-.093a9.466,9.466,0,0,1,.75-2.7c.15-.386.278-.75.371-1.086.05-.236.036-.143.036-.171v-.007l-.014-.015-.065-.035-.25-.193a3.445,3.445,0,0,1-.693-.858,6.641,6.641,0,0,1-.628-1.664,18.313,18.313,0,0,1-.408-3.036c-.057-.965-.064-1.908-.1-2.772-.007-.229-.014-.393-.035-.607l-.086-.636-.172-1.286c-.064-.421-.085-.886-.135-1.321s-.015-.915-.015-1.358c.043-.457.122-.907.193-1.357s.229-.822.343-1.229c.179-.5.343-.986.515-1.464.05-.093-.043-.065-.079-.093l-.043-.015-.2-.064a1.006,1.006,0,0,1-.221-.107A1.391,1.391,0,0,1,39,88.96a1.149,1.149,0,0,1-.293-.379,3.106,3.106,0,0,1-.279-.807c-.043-.222-.05-.386-.078-.579-.029-.357-.05-.707-.079-1.057-.064-.693-.036-1.35-.043-1.993.043-1.258.079-2.436.115-3.544a13.308,13.308,0,0,1,1.4-5.972,14.187,14.187,0,0,1,2.672-3.6A18.891,18.891,0,0,1,44.7,69.121c1.25-.871,1.878-1.136,1.95-1.043.078.114-.386.579-1.465,1.608-.528.521-1.193,1.185-1.95,2.064a14.577,14.577,0,0,0-2.186,3.465,13.292,13.292,0,0,0-.922,5.386v3.544a13.6,13.6,0,0,0,.008,1.871c.028.315-.029.629.007.958l.064.443c.022.064.043.164.05.164a.116.116,0,0,0,.064.05c.179.05.358.093.543.143l.972.257.243.071c.064.029.228.007.157.115L42.1,88.7c-.086.322-.171.65-.264.979l-.136.493a1.548,1.548,0,0,1-.05.178l-.05.136c-.114.35-.257.736-.35,1.079s-.221.7-.279,1.043c-.042.35-.1.693-.135,1.05.014.372,0,.729.035,1.122s.072.778.143,1.2.122.857.186,1.293c.029.221.064.45.093.678s.05.508.064.729c.043.929.057,1.822.122,2.736a16.169,16.169,0,0,0,.371,2.665,4.569,4.569,0,0,0,.422,1.114,1.648,1.648,0,0,0,.25.322.15.15,0,0,1,.057.043l.321.078c.25.057.593.115.843.165-.028.392-.057.785-.085,1.185a6.2,6.2,0,0,1-.165,1.051,11.241,11.241,0,0,1-.436,1.321,7.44,7.44,0,0,0-.614,2.179l-.007.029-.007.085a6.416,6.416,0,0,0-.079,1.143c.007.072-.007.215.015.229.007.029.007.036,0,.036H42.36l.008.007a.683.683,0,0,1,.128.1c.157.114.286.2.486.357.107.05.128.171.164.279l.114.328c.029.107.079.236.1.322l.035.228c.022.143.057.293.065.429a10.887,10.887,0,0,1,.007,1.593c-.036.6-.086,1.186-.129,1.757.314-.485.643-.978.979-1.486.364-.507.757-1.014,1.157-1.528,1.014-1.236,1.979-2.408,2.85-3.479s1.6-2.051,2.158-2.894c.271-.428.514-.821.736-1.157.193-.371.364-.686.5-.95.286-.514.478-.786.557-.757s.029.364-.121.936c-.079.285-.172.628-.315,1.021-.171.393-.378.836-.621,1.322a22.154,22.154,0,0,1-2.015,3.157c-.829,1.129-1.8,2.308-2.786,3.551-.386.5-.764.993-1.136,1.471-.343.493-.678.972-1,1.436-.271.5-.543.958-.729,1.386a2.9,2.9,0,0,0-.178.479,2.738,2.738,0,0,0,.2.621c.929-.042,1.857-.078,2.786-.135,9.294-.593,18.7.157,27.989-.343-.035-.079-.071-.15-.092-.215-.2-.535-.393-1.064-.586-1.578-.329-1.022-.65-2.008-.95-2.944-.186-.464-.358-.914-.529-1.357-.164-.364-.379-.786-.586-1.15-.428-.743-.879-1.422-1.307-2.036a29.629,29.629,0,0,1-1.943-3.029c-.379-.764-.522-1.207-.457-1.25s.364.336.864,1.007,1.272,1.586,2.222,2.765a23.9,23.9,0,0,1,1.478,2.021,13.062,13.062,0,0,1,.708,1.272c.185.429.378.879.571,1.336.179.479.35.971.536,1.479q.246.727.514,1.5c.179.479.372.971.558,1.464.085-.357.15-.75.207-1.128.078-.543.135-1.079.185-1.615.1-1.036.129-2.114.208-3.093.078-1,.028-1.922.057-2.8s.007-1.693,0-2.443c-.015-3.007.028-4.886.2-4.893s.414,1.843.65,4.858c.064.75.128,1.571.15,2.471s.1,1.872.05,2.858c-.043,1.007-.05,2.022-.136,3.143-.043.55-.1,1.107-.171,1.679a10.932,10.932,0,0,1-.315,1.543c.565-.036,1.129-.086,1.686-.143C79.965,117.335,79.065,111.848,79.394,108.062ZM77.172,71.307a4.8,4.8,0,0,1-.071-.65c-.093-2.343.243-4.672-.272-6.979a.512.512,0,0,1-.093-.172A9.981,9.981,0,0,0,74.3,62.249a8.461,8.461,0,0,1-.528,1.421A34.441,34.441,0,0,1,77.172,71.307ZM75.358,39.839a27.376,27.376,0,0,0-.065-6.215A1.884,1.884,0,0,1,74.229,34a1.027,1.027,0,0,0-.007.143,5.656,5.656,0,0,1-.172,1.1c-.164.586-.328.879-.4.865s-.078-.35-.071-.929a6.644,6.644,0,0,0-.129-1.593c0-.007,0-.007-.007-.014-.914-1.236-1.772-1.143-2.536-.436a5.61,5.61,0,0,0-.35,1.5,15.131,15.131,0,0,0-.057,2.229,14.242,14.242,0,0,0,.278,2.207c.158.686.4,1.4.572,2.065a10.388,10.388,0,0,1,.186,1.05,5.059,5.059,0,0,0,.185.829c.122.25.022.128.15.178.036.022.172-.071.279-.25a4.559,4.559,0,0,0,.407-1.214c.086-.393.136-.743.179-1.029.086-.571.114-.886.2-.9s.214.307.271.914a7.615,7.615,0,0,1,.022,1.1,4.484,4.484,0,0,1-.322,1.514,1.286,1.286,0,0,1-.9.786.909.909,0,0,1-.364,0l-.179-.043-.085-.021L71.286,44,71.271,44l-.021-.021a1.033,1.033,0,0,1-.293-.293,1.851,1.851,0,0,1-.15-.271,5.346,5.346,0,0,1-.314-1.022c-.079-.329-.122-.686-.207-.936-.208-.671-.458-1.321-.658-2.107a12.845,12.845,0,0,1-.328-2.422c-.022-.436-.022-.864-.007-1.293-.608,1.293-1.058,2.636-1.315,3.193-1.629,3.6-4.35,6.13-7.994,6.658a44.581,44.581,0,0,1,7.894,6.551A5.7,5.7,0,0,1,69.95,50.3c.057-.021.107-.042.157-.057a1.206,1.206,0,0,1,.2-.178c1.957-1.386,3.379-2.436,4-4.93A31.323,31.323,0,0,0,75.358,39.839Zm-.55-9.987c3-6.466,5.065-16.224-2.415-20.689C67.585,6.291,60.677,5.4,55.191,6.434,47.947,7.8,41.782,14.657,41.8,22.251a42.577,42.577,0,0,0,1.522,9.9c.564,2.379-.6,4.815-.786,7.222A36.057,36.057,0,0,1,57.984,44.3c4.222.308,7.272-2.357,8.887-6.122.821-1.922,1.507-4.215,2.914-5.822.665-.757,1.644-1.8,2.8-1.479,1.271.35,1.429,2.179,2.414,1.336a11.891,11.891,0,0,0-.421-1.293.836.836,0,0,1,.207-1ZM72.522,60.477c.021-.1.035-.207.057-.307-8.609-9.2-18.053-18.6-31.483-18.7.021,1.015.057,2.029,0,3.044a84.794,84.794,0,0,0,9.766,4.029,64.4,64.4,0,0,1,6.1,2.079c-.085-.065-.171-.122-.257-.186-.736-.564-1.586-1.007-2.3-1.515s-1.307-.978-1.822-1.343c-.507-.385-.929-.635-1.214-.835-.322-.179-.486-.315-.465-.393s.243-.093.608-.05a5.957,5.957,0,0,1,1.514.543c.6.3,1.265.714,1.979,1.143a26.426,26.426,0,0,1,2.386,1.457,12.481,12.481,0,0,1,1.172.914,8.437,8.437,0,0,1,.978,1.065c.307.393.565.764.8,1.121,4.179,2.958,7.48,7,11.573,10.045a7.841,7.841,0,0,0,.493-1.558A1.1,1.1,0,0,1,72.522,60.477Z"/><path d="M77.572,99.947a7.683,7.683,0,0,1-.264,2.514,2.233,2.233,0,0,1-.286.622c-.086.128-.15.193-.186.178s-.057-.1-.042-.257.057-.385.057-.65a12.471,12.471,0,0,0-.129-2.35c-.064-.5-.143-1.057-.207-1.672-.021-.614-.043-1.271-.064-1.964-.022-.672-.05-1.379-.079-2.115-.057-.721-.071-1.486-.157-2.25-.322-3.108-.557-5.922-.972-7.9-.385-1.979-.814-3.179-.643-3.258.129-.064.851,1.043,1.472,3.051a43.808,43.808,0,0,1,1.35,8c.079.793.093,1.571.129,2.321.007.743.007,1.465.014,2.151-.021.671-.036,1.307-.05,1.9C77.537,98.875,77.551,99.432,77.572,99.947Z"/><path d="M76.236,20.093c.043.672.086,1.379.079,2.136a4.49,4.49,0,0,1-.057.643,1.157,1.157,0,0,1-.2.493,1.044,1.044,0,0,1-.143.164,1.064,1.064,0,0,1-.229.129.841.841,0,0,1-.421.05,1.989,1.989,0,0,1-.393-.122c-.036.415-.072.829-.143,1.251a5.159,5.159,0,0,1-.772,2.079c0,.007-.007.007-.007.014s-.007.014-.014.021a2.676,2.676,0,0,1-.879.95.935.935,0,0,1-.5.15.856.856,0,0,1-.593-.235,9.492,9.492,0,0,0-.721,1,8.862,8.862,0,0,1-.972,1.286,2.387,2.387,0,0,1-.886.6c-.235.085-.364.1-.378.05-.057-.122.378-.35.821-1.015a14.968,14.968,0,0,0,.708-1.328A5.42,5.42,0,0,1,71.8,26.6l.543-.457.243.729a.108.108,0,0,0,.014.043,2.5,2.5,0,0,0,.379-.543l.007-.008.021-.028a4.3,4.3,0,0,0,.55-1.679c.093-.643.108-1.364.2-2.143l.008-.05.107-1.057.857.65c.136.107.271.2.393.285.007-.05.007-.1.014-.15.022-.693.007-1.385-.007-2.05a17.518,17.518,0,0,0-.343-3.407c-.036-.243-.128-.45-.178-.658a4.765,4.765,0,0,0-.193-.578c-.165-.329-.243-.643-.4-.886-.3-.486-.429-.779-.365-.829s.322.143.729.536a5.422,5.422,0,0,1,.636.879,3.445,3.445,0,0,1,.307.607,7.023,7.023,0,0,1,.286.693A14.154,14.154,0,0,1,76.236,20.093Z"/><path d="M68.943,10.956c.314,1.115,1.214,4.972-.1,5.665-.072.036-.143.072-.215.1l-.057.05c-.057.007.114.05-.129.05a.314.314,0,0,1-.078-.028.679.679,0,0,1-.15-.015,2.558,2.558,0,0,1-.264-.057,1.916,1.916,0,0,1-.343-.143,2.375,2.375,0,0,1-.243-.142,1.035,1.035,0,0,1-.115-.072c0,.757.129,1.565.129,2.358a6.6,6.6,0,0,1-.057.835l-.007.05-.015.079-.007.021-.021.086-.05.179a2.842,2.842,0,0,1-.107.35,4.878,4.878,0,0,1-.686,1.25,7.268,7.268,0,0,1-1.322,1.393c-.35.279-.571.4-.628.343s.057-.279.293-.643.607-.879.964-1.529c1.129-1.979.071-3.815.45-5.929l.121-.757.679.328a11.738,11.738,0,0,0,1.229.679c-.222-.072-.043-3.894-.1-4.322a5.9,5.9,0,0,0-.529-1.793c-.186-.372-.386-.622-.307-.679.057-.036.307.021.686.407A4.4,4.4,0,0,1,68.943,10.956Z"/><path d="M66.264,32.538c.142.028.178.95-.279,2.4a6.907,6.907,0,0,1-1.314,2.35,8.308,8.308,0,0,1-1.158,1.093c-.121.093-.164.143-.343.272-.135.086-.271.171-.407.243a4.042,4.042,0,0,1-.921.328,2.338,2.338,0,0,1-.686.036,1.5,1.5,0,0,1-.715-.293,5.653,5.653,0,0,1-2.286,2.372,2.545,2.545,0,0,1-1.371.264c-.307-.043-.457-.128-.457-.193s.164-.128.45-.207a3.536,3.536,0,0,0,1-.507,7.73,7.73,0,0,0,2.179-3.329l1.143-2.85-.022,3.1c0,.236.057.421.093.407,0,.029.193.064.436.014a2.934,2.934,0,0,0,.614-.214,2.78,2.78,0,0,0,.286-.164c.036-.022.193-.143.279-.207a9.082,9.082,0,0,0,1.064-.908,7.715,7.715,0,0,0,1.35-1.936C65.806,33.366,66.085,32.495,66.264,32.538Z"/><path d="M61.12,67.721c.071.15-.95.757-2.629,1.607-.829.429-1.829.922-2.857,1.558-.272.15-.522.321-.772.493a7.888,7.888,0,0,0-.771.564l-.4.321c-.05.043-.164.122-.164.143l-.178.179c-.236.236-.486.479-.729.721-1.893,2.058-3.379,4.215-4.672,5.623-1.307,1.443-2.258,2.1-2.365,2.007-.143-.121.636-1.043,1.693-2.536a57.483,57.483,0,0,1,4.465-5.922c.265-.257.529-.515.786-.772l.193-.185a1.754,1.754,0,0,1,.236-.193l.4-.315a9.336,9.336,0,0,1,.857-.585,9.432,9.432,0,0,1,.864-.508,24.115,24.115,0,0,1,3.072-1.371C59.927,67.892,61.049,67.571,61.12,67.721Z"/><path d="M60.07,89.06a9.546,9.546,0,0,1-.064,1.085,11.872,11.872,0,0,1-.3,1.393,17.52,17.52,0,0,1-1.386,3.38c-.158.307-.322.614-.5.928-.1.165-.143.279-.293.5-.107.15-.207.3-.315.45-.421.593-.857,1.215-1.3,1.851-3.829,5.072-7.937,8.115-8.1,7.915-.286-.286,3.436-3.736,7.115-8.608.45-.636.893-1.251,1.322-1.843.107-.15.214-.293.321-.436.058-.072.179-.286.258-.415.185-.292.357-.585.521-.871A25.16,25.16,0,0,0,58.9,91.26c.186-.45.322-.879.443-1.25.093-.372.2-.686.257-.965.093-.557.186-.871.265-.871S60.02,88.488,60.07,89.06Z"/><path d="M55.612,35.988c.072.014.136.207.072.543a2.991,2.991,0,0,1-.65,1.257,5.925,5.925,0,0,1-1.565,1.336,6.028,6.028,0,0,1-1.122.529,3.972,3.972,0,0,1-1.364.229,3.676,3.676,0,0,1-2.029-.458,5.079,5.079,0,0,1-.986-.793,3.406,3.406,0,0,1-.578.393,1.932,1.932,0,0,1-.972.207,1.375,1.375,0,0,1-.579-.157c-.114-.057-.178-.114-.171-.164s.079-.1.207-.129.307-.071.493-.121a2.543,2.543,0,0,0,1.257-1.043l.272-.357.428.321a8.351,8.351,0,0,0,1.186.843,2.9,2.9,0,0,0,1.443.25,3.257,3.257,0,0,0,1.029-.143,6.1,6.1,0,0,0,.95-.378,7.693,7.693,0,0,0,1.493-.958C55.219,36.567,55.434,35.967,55.612,35.988Z"/><path d="M54.541,12.235c.035.071-.172.286-.579.614-.2.165-.386.4-.629.636-.228.264-.486.586-.743.943a11.481,11.481,0,0,0-1.407,2.779,5.8,5.8,0,0,0-.25.85c-.071.286-.136.593-.186.936s-.107.65-.136.972c-.007.1-.014.192-.014.292l.122-.085.778-.507.122.935a37.985,37.985,0,0,1,.007,3.937c.007.142.014.278.021.414.022.129.043.25.057.379a3.739,3.739,0,0,0,.186.707l.05.171.065.136c.057.107.114.236.171.321.121.179.221.351.357.536a5.763,5.763,0,0,1,1.029,1.951,1.211,1.211,0,0,1,.007.621c-.029.143-.064.207-.1.207s-.086-.078-.129-.2a2.142,2.142,0,0,0-.207-.486,8.511,8.511,0,0,0-1.25-1.586c-.15-.157-.314-.371-.486-.585-.085-.115-.135-.215-.207-.322-.043-.071-.05-.071-.121-.2l-.086-.2a4.635,4.635,0,0,1-.286-.857c-.036-.15-.071-.307-.1-.457s-.036-.315-.057-.472c-.093-.993,0-2-.043-2.986a1.92,1.92,0,0,1-.2.014.9.9,0,0,1-.257-.064.78.78,0,0,1-.321-.221,1.022,1.022,0,0,1-.286-.536,1.944,1.944,0,0,1-.043-.379,5.4,5.4,0,0,1,.028-.6c.043-.378.108-.729.172-1.064a9.059,9.059,0,0,1,.236-1,6.526,6.526,0,0,1,.321-.958,10.156,10.156,0,0,1,1.786-2.914,8.428,8.428,0,0,1,.95-.908,6.617,6.617,0,0,1,.843-.55C54.212,12.249,54.5,12.164,54.541,12.235Z"/><path d="M53.705,75.672c.135.022,0,1.3-.793,3.179a58.177,58.177,0,0,1-3.836,6.808c-3.165,5.172-5.887,9.294-6.173,9.116s1.965-4.544,5.137-9.737c1.607-2.622,3.164-4.844,4.1-6.566C53.1,76.772,53.519,75.622,53.705,75.672Z"/><path d="M51.44,9.377c.036.079-.228.293-.743.629-.257.164-.514.407-.85.65-.314.264-.671.586-1.05.95a17.727,17.727,0,0,0-2.329,2.858,9.547,9.547,0,0,0-.55.907c-.093.157-.179.314-.271.472-.036.078-.1.192-.115.242a1.447,1.447,0,0,0-.071.193,1.465,1.465,0,0,0-.065.415.449.449,0,0,0,.015.15,1.143,1.143,0,0,0,.357-.15l.064-.029,1.022-.536-.107,1.093a3.355,3.355,0,0,1-.529,1.386c-.214.365-.436.686-.586.986a2.606,2.606,0,0,0-.193.422c-.057.178-.114.357-.164.535-.121.365-.186.686-.279,1.022-.071.329-.135.65-.185.964-.022.315-.065.622-.072.908a6.862,6.862,0,0,0,.15,1.65c.207,1.014.486,1.864.565,2.486s.05.957-.022.971c-.093.015-.214-.3-.436-.85-.2-.557-.585-1.321-.928-2.393a7.1,7.1,0,0,1-.322-1.829c-.021-.35.007-.685.015-1.05q.052-.535.15-1.093c.078-.357.157-.75.257-1.1.05-.179.1-.357.15-.543a3.443,3.443,0,0,1,.264-.636c.186-.385.407-.714.593-1.036a.671.671,0,0,1-.164-.028,1.045,1.045,0,0,1-.543-.379,1.481,1.481,0,0,1-.265-.943,2.5,2.5,0,0,1,.136-.743,4.963,4.963,0,0,1,.586-1.136,9.249,9.249,0,0,1,.629-.957,14.982,14.982,0,0,1,2.671-2.864,12.6,12.6,0,0,1,1.243-.872,8.615,8.615,0,0,1,1.022-.514C51.069,9.377,51.4,9.306,51.44,9.377Z"/><path d="M46.932,33.309a1.977,1.977,0,0,1,.043,1.372,3.28,3.28,0,0,1-.493.964,6.581,6.581,0,0,1-1.128,1.2c-.708.579-1.172.851-1.293.751-.136-.108.157-.622.671-1.322a13,13,0,0,0,.822-1.222,2.792,2.792,0,0,0,.271-.628,2.42,2.42,0,0,1-.836-.072l-.543-.128.108-.522a13.409,13.409,0,0,1,.857-2.607c.228-.636.407-1.022.557-1,.129.028.214.435.179,1.128-.05.557-.2,1.236-.329,1.972a.261.261,0,0,0,.1-.057l.036-.015.786-.264Z"/><path d="M41.775,64.763c1.043,1.172,1.421,2.079,1.3,2.151-.157.107-.765-.593-1.893-1.536a48.939,48.939,0,0,0-4.765-3.329c-.493-.322-.95-.6-1.415-.95-.443-.315-.864-.622-1.264-.908a15.046,15.046,0,0,0-2.186-1.335,7.384,7.384,0,0,0-.879-.372,4.423,4.423,0,0,0-.7-.229c-.421-.092-.65-.185-.643-.264s.236-.15.664-.2a5.146,5.146,0,0,1,1.872.272,11.168,11.168,0,0,1,2.479,1.2c.436.264.886.564,1.329.864.414.293.921.593,1.4.915A23.543,23.543,0,0,1,41.775,64.763Z"/><polygon points="42.368 113.056 42.368 113.063 42.36 113.056 42.368 113.056"/><path d="M24.251,91.474c2.55,5.794,5.393,10.144,5.072,10.359-.222.171-3.551-3.929-6.18-9.88A36.427,36.427,0,0,1,20.75,84c-.314-2.093-.321-3.394-.178-3.422.185-.036.493,1.243,1.014,3.265A63.125,63.125,0,0,0,24.251,91.474Z"/></g></svg>